PathFileType	4	(X/Y/Z)	pose_F01_0-96.trc
DataRate	CameraRate	NumFrames	NumMarkers	Units	OrigDataRate	OrigDataStartFrame	OrigNumFrames
30	30	9	21	m	30	36	96
Frame#	Time	CHip			RHip			RKnee			RAnkle			RBigToe			RSmallToe			RHeel			LHip			LKnee			LAnkle			LBigToe			LSmallToe			LHeel			Neck			Nose			RShoulder			RElbow			RWrist			LShoulder			LElbow			LWrist			
		X1	Y1	Z1	X2	Y2	Z2	X3	Y3	Z3	X4	Y4	Z4	X5	Y5	Z5	X6	Y6	Z6	X7	Y7	Z7	X8	Y8	Z8	X9	Y9	Z9	X10	Y10	Z10	X11	Y11	Z11	X12	Y12	Z12	X13	Y13	Z13	X14	Y14	Z14	X15	Y15	Z15	X16	Y16	Z16	X17	Y17	Z17	X18	Y18	Z18	X19	Y19	Z19	X20	Y20	Z20	X21	Y21	Z21	
36	1.2	-0.20577807475768706	1.8500823110768145	-0.551538419718326	-0.2135811885809318	1.8496649437871886	-0.4950299562999716	-0.21254721892375558	1.7115335177608686	-0.47819731789058123	-0.2032850178676886	1.5803125713685533	-0.4727792942912904	-0.22899011696345783	1.5463866880344739	-0.4278376103502867	-0.2248636725077442	1.552071024711622	-0.4093384217277813	-0.20021724488298764	1.5718155415476265	-0.4839118891419815	-0.19779151813128096	1.8503450117171003	-0.6111424996559773	-0.20014890494323423	1.7112209467631934	-0.5755418429666868	-0.19761233684371138	1.5687261516452335	-0.561190961811527	-0.2281803899450551	1.5359735224796451	-0.5394414783760177	-0.21942860375909296	1.5369698464029762	-0.5698561100745236	-0.1886589652754886	1.559475777678428	-0.5563184032996652	-0.19775305685830025	2.00581355011753	-0.6006400386254804	-0.22186083657536315	2.060106751037311	-0.5578170022226625	-0.20842544866358065	2.005798215181299	-0.5258432602679671	-0.22812200695069523	1.957899291725515	-0.4380546899152491	-0.222660284771101	2.0107312828896267	-0.5114642440104388	-0.1841751130874718	2.0047173885135803	-0.6799394866621471	-0.2237660591363642	1.941504450371221	-0.6159422627685441	-0.23257848518258706	2.0069001106798847	-0.5878206470697127
37	1.2333333333333334	-0.20293435456118125	1.8475282411204326	-0.5502722489082825	-0.2119221452799853	1.8474167196667148	-0.4968050858677016	-0.21011369523406978	1.707389736603433	-0.4803293076593524	-0.2038385961395774	1.5808012466406398	-0.4720479270930415	-0.230955764335568	1.5462153531366065	-0.4256490622833559	-0.2267925688518705	1.5519722320630227	-0.40720009884208724	-0.20025683650083095	1.5718198315683154	-0.48395728246572417	-0.19578560207100043	1.8478704090202445	-0.612947594846765	-0.2005570944549902	1.7097855843962935	-0.5790603717842577	-0.19732187800222903	1.570015849524606	-0.5619898483771774	-0.2282101788276079	1.5359842686452747	-0.5393803551043749	-0.2194690528954402	1.5368751660289846	-0.5698232099399415	-0.1874934691683662	1.5597001701604634	-0.5619020318566291	-0.19491979423850678	2.0046179683960927	-0.5998225741606028	-0.2178637252462213	2.0603258531760433	-0.5621667539327011	-0.20771390703288364	2.0034284605305723	-0.5225921179910696	-0.2290991467433249	1.960685030656711	-0.44175563057506084	-0.22122976153952864	2.015747532913922	-0.5173493654828425	-0.181988691948205	2.004727384635245	-0.6822605560400575	-0.217524254787692	1.9452353536265239	-0.6144034341686265	-0.22414466778560757	2.009576533151235	-0.5876257476815478
38	1.2666666666666666	-0.2038201116712107	1.8409639288055335	-0.5526127152146146	-0.21175476552920489	1.8392977485717843	-0.4956627625231935	-0.210533687610202	1.7077456750567666	-0.48001200335131855	-0.20167793419273794	1.5822129241574843	-0.47478030901965473	-0.2321884830640036	1.5476978091520983	-0.4287175972080608	-0.22491333420217346	1.552347280017389	-0.40936250452231654	-0.2002435930001754	1.5718813369380753	-0.48409754155695517	-0.19692658822220302	1.8413030023586974	-0.6153300923806189	-0.20534801763329394	1.7086764903613334	-0.5867907211291739	-0.19981973461033078	1.5715071491138364	-0.5813727629034083	-0.22755746094610163	1.538443621944726	-0.5446058607732018	-0.2181521622670435	1.5386326332623426	-0.5759857635278364	-0.19027746324611275	1.56261307355495	-0.5813708452203361	-0.19274861318819675	2.0047145315785606	-0.6019513269237093	-0.2166109918818467	2.0616415531248773	-0.5674915391848359	-0.20657130828917195	2.004443068974042	-0.5195420931529384	-0.22790945769868673	1.9602421019314704	-0.43802849248998776	-0.2194720096722424	2.014560547106832	-0.5196707462518038	-0.17898394923967853	2.0046692927229697	-0.6815341335776965	-0.22344723131976485	1.942314615731163	-0.6332168051929233	-0.22001322692058298	2.0030824427601006	-0.5817582723720713
39	1.3	-0.2015549413347054	1.8412331198872383	-0.5635319098965506	-0.21069595177032105	1.8394419057783231	-0.5010926779847286	-0.21170545346687256	1.7064700152056962	-0.48296864501538056	-0.20192381201041915	1.5811001717491278	-0.47428980622182615	-0.23217719951850233	1.547492353435815	-0.4287618888205781	-0.22494278118137562	1.5524861135936503	-0.40935025506277595	-0.1985044209709836	1.5706915811487676	-0.48564004256556137	-0.19113290051353288	1.8412465287737094	-0.625545887710865	-0.20898594992835406	1.7086600608463114	-0.5958406699111539	-0.20323871172766364	1.5746746656380832	-0.6080353792459715	-0.23405904861237795	1.541602436194947	-0.5726074238597434	-0.22478090849745044	1.5441621176095146	-0.6037624034698656	-0.1937623787106069	1.5664746187019336	-0.6126254470820337	-0.1935177728279699	2.0006653652693687	-0.6039774271447665	-0.215601549242945	2.059267896875554	-0.5723967439185959	-0.20668955683048504	1.9980608560486857	-0.5182711659596668	-0.22566889292886222	1.9519239745660568	-0.42919960879013536	-0.21209065787264778	2.0025921223906784	-0.4844669332824839	-0.1791278152357587	2.0036394709368026	-0.692279644170891	-1.3611764960445152	1.8575001227313266	0.5143802784095514	-0.22554554991565146	1.995078061367285	-0.6168899398974962
40	1.3333333333333333	-0.20140851337184865	1.8427598148027065	-0.5725290675725069	-0.20976503688955717	1.8410686871414612	-0.5069569884398912	-0.2106344878130063	1.7093833693370732	-0.48891379716074845	-0.20229487375219019	1.5807170165447209	-0.47348147153610387	-0.23407818918890155	1.5468472625094711	-0.4264945543089077	-0.2268254457414413	1.5520786678284313	-0.4071328607171287	-0.1989940336247975	1.5715544548648634	-0.4849558190337633	-0.19018035366052727	1.8418315931406535	-0.6311432194408364	-0.2104689043786352	1.7171309757578535	-0.61245950633562	-0.18682653751473807	1.5912301822280235	-0.6522308854365798	-0.21203379110907652	1.5534673279518314	-0.6222995885865801	-0.2072041174820715	1.5572612528202858	-0.6529834110657108	-0.17590756542411848	1.582241428058752	-0.6578218470908457	-0.189475102817866	2.0036172611835936	-0.6093874880398671	-0.2133661731728632	2.059648727783328	-0.5830901615684055	-0.2045804732829006	2.0005668767077616	-0.5209809111318391	-0.22477762715065028	1.945679860103995	-0.43356580848911863	-0.21445199031212023	2.0084474375971406	-0.45899670070862	-0.17719672153392904	2.007787868277159	-0.6962099765074807	-1.2905345534009594	1.8475945428315792	0.39969279146637177	-0.23846703327637045	1.9890459136370537	-0.6509769575892522
41	1.3666666666666667	-0.20154023906888027	1.8406044129026027	-0.581146208630505	-0.21107754464622222	1.8402132907424533	-0.518983033409919	-0.2066199956716053	1.7069809874830295	-0.49322549258242293	-0.20175146785274758	1.5806193294867308	-0.47432717342649117	-0.23298457265285166	1.5468278841776	-0.4232827407540405	-0.2268443643221	1.552346731310225	-0.40713026805033853	-0.19670719492229186	1.5723858641565907	-0.4878855505547554	-0.19292445679387935	1.841161227383693	-0.6492358405802955	-0.20699148484829694	1.7106227158940912	-0.6282543480168699	-0.16535657883910354	1.5915221197306457	-0.6915066562201084	-0.18872842932937536	1.5537244738525644	-0.6587658803898553	-0.17887052889021995	1.559667970880193	-0.6946947997358127	-0.15429919219339935	1.5838415225099463	-0.7019068335834335	-0.18681577381621695	1.9979890947669017	-0.6279505936018529	-0.2130520206239632	2.0612357689136758	-0.5921456788624664	-0.19662199248426707	1.9941779168580014	-0.5467333810335215	-0.22210009416145934	1.9334867274964207	-0.46502171085366695	-0.22446899343168172	1.9889792551998877	-0.45178994186105265	-0.17174027584177778	2.0021792137884065	-0.7161690111028034	-1.276577558720648	1.8374229204660188	0.37863090115190307	-0.2214268974596918	1.9773241768955256	-0.6723250060012752
42	1.4	-0.19844271057751714	1.843946782250811	-0.6101007437107417	-0.20743836258469373	1.84222768248824	-0.5447832452869199	-0.2055688915029922	1.708801470546353	-0.5078812384080938	-0.19976679180542045	1.5807251395333783	-0.4766091661394184	-0.23184201066906263	1.5456436343619255	-0.4286414416895828	-0.22464711349715533	1.551058828426582	-0.4093001570563873	-0.19657680670605335	1.572017877394278	-0.488071469046433	-0.186810480926827	1.8443698905513455	-0.6686262139767465	-0.18878721972581147	1.709271918072117	-0.6637680001102743	-0.14840507484369303	1.5873810590089552	-0.7078470446609376	-0.1811874044729585	1.551455160380838	-0.6699243047544927	-0.17015664171505684	1.5561825361284136	-0.7106814885653573	-0.13490755704540616	1.5768240893046994	-0.7198051818040492	-0.18067822134455905	1.9970317328771359	-0.6457633722465094	-0.20856427027927193	2.060175071465968	-0.6038968492726554	-0.19091591913136674	1.9932416084394708	-0.5646354923497252	-0.2092731482858948	1.922026525812963	-0.5085836021377521	-0.22639107204751682	1.9741922154832041	-0.4799694347871649	-0.16891681074940976	2.001072665857101	-0.726764121875107	-0.1618701193971196	1.9224505037525215	-0.7577486895300239	-0.20438676164301312	1.9656024401539975	-0.6936730544132982
43	1.4333333333333333	-0.19023284301347995	1.8390145466663739	-0.6306712466468339	-0.20061281041235565	1.8372962973089189	-0.5685928746075677	-0.20908028897135916	1.7085108725061575	-0.5215479939613776	-0.2099938468180528	1.5871556237378317	-0.49704180373734713	-0.23882773063039275	1.552704206173574	-0.453925867167765	-0.23415308273706797	1.5603305756207644	-0.43256068400233366	-0.20600869259687182	1.577216548143378	-0.5044410492490641	-0.1797294859149516	1.8382703763740622	-0.6954123249758808	-0.17547152049523135	1.7102494821163534	-0.6862363921766768	-0.1448350710399252	1.5845829317503302	-0.7105323672095409	-0.17588262866478924	1.5519121657432324	-0.6712568170938671	-0.16703255849769696	1.556765456446633	-0.7098890773725421	-0.13502281158031687	1.5741856516627795	-0.714570160040247	-0.17620611138146836	1.9961073510825285	-0.6589953311754728	-0.20709364944391062	2.058241791226852	-0.6171830734460126	-0.18742147548347574	1.9922305074074829	-0.5804739062047084	-0.192527806088224	1.9144925940871318	-0.5315836913035691	-0.21536991105492814	1.9713138371714332	-0.5134943598648861	-0.16462544737451731	2.0004765339048896	-0.7425786311334313	-1.2561803478358642	1.8341410488849188	0.3206182528562183	-0.20030144572118444	1.9613660674528879	-0.7271951693453658
44	1.4666666666666666	-0.1786759369077493	1.8375691896113182	-0.6474617547838728	-0.18933913179061884	1.8370009558804645	-0.585377941426416	-0.21273514590985182	1.7155849316296796	-0.5450433324522755	-0.21446123358196983	1.594388084202361	-0.5373166633469514	-0.24562852213141506	1.5630994262699054	-0.5142946639113655	-0.24158111803437768	1.5674560897393668	-0.4881608953518332	-0.20671702541847664	1.5847945704765931	-0.5527902303837962	-0.1633270230361207	1.839583532989084	-0.7170886236644717	-0.16804488235513623	1.7071299721003423	-0.6975544087616342	-0.14560139927432555	1.5813240910582407	-0.713298188231002	-0.17877986166405463	1.5500953708185758	-0.6726189658624521	-0.17062410028341948	1.5525309539744392	-0.70984612640188	-0.13312351862606156	1.5701548782555883	-0.7157755116410665	-0.173692727477363	1.9981229716033617	-0.6705844272895443	-0.2048495340013938	2.058650778396089	-0.6284862733488287	-0.1834449555262666	1.9940621166306658	-0.5860616967108548	-0.1797217031729711	1.9155761558404556	-0.5424400615130727	-1.712148093159825	1.879241427878774	1.0938988748310265	-0.1619623100364215	2.004721169980415	-0.7548249939391073	-0.15872930669808835	1.9241025607760502	-0.8098342679200119	-0.2040669274104734	1.971538809557929	-0.7310420889094602
